<?xml version="1.0" encoding="UTF-8"?>
<svg width="512px" height="512px" viewBox="0 0 512 512" version="1.1" xmlns="http://www.w3.org/2000/svg" xmlns:xlink="http://www.w3.org/1999/xlink">
    <!-- Generator: Sketch 63.1 (92452) - https://sketch.com -->
    <title>jersey</title>
    <desc>Created with Sketch.</desc>
    <g id="Page-1" stroke="none" stroke-width="1" fill="none" fill-rule="evenodd">
        <g id="jersey" fill-rule="nonzero">
            <path d="M256,512 C397.385,512 512,397.385 512,256 C512,114.615 397.385,0 256,0 C114.615,0 0,114.615 0,256 C0,397.385 114.615,512 256,512 Z" id="Path" fill="#F0F0F0"></path>
            <path d="M459.098,411.875 L303.223,256.001 L303.222,256.001 L459.098,100.124 C452.375,91.3881 445.021,82.9831 437.02,74.9801 C429.017,66.9781 420.613,59.6231 411.876,52.9021 L256.001,208.777 L256,208.778 L100.125,52.9021 C91.3903,59.6241 82.9843,66.9771 74.9813,74.9801 C66.9783,82.9831 59.6243,91.3881 52.9023,100.124 L208.778,255.998 L208.779,255.999 L52.9023,411.876 C59.6253,420.612 66.9793,429.017 74.9803,437.02 C82.9833,445.022 91.3873,452.377 100.124,459.098 L256,303.223 L256.001,303.222 L411.876,459.098 C420.611,452.375 429.017,445.021 437.02,437.019 C445.023,429.016 452.376,420.611 459.098,411.875 Z" id="Path" fill="#D80027"></path>
        </g>
    </g>
</svg>